<svg id="Icons" height="512" viewBox="0 0 74 74" width="512" xmlns="http://www.w3.org/2000/svg"><path d="m38.47 60h-2.91a1 1 0 0 1 0-2h2.91a1 1 0 0 1 0 2z"/><path d="m71 60h-15.56a1 1 0 0 1 0-2h14.56v-42h-66v42h24.56a1 1 0 1 1 0 2h-25.56a1 1 0 0 1 -1-1v-44a1 1 0 0 1 1-1h68a1 1 0 0 1 1 1v44a1 1 0 0 1 -1 1z"/><path d="m48.44 60h-2.97a1 1 0 0 1 0-2h2.97a1 1 0 0 1 0 2z"/><path d="m37 41.013a13.715 13.715 0 0 1 -8.92-3.306l-25.729-21.946a1 1 0 1 1 1.3-1.522l25.73 21.947a11.694 11.694 0 0 0 15.242 0l25.73-21.947a1 1 0 1 1 1.3 1.522l-25.733 21.946a13.715 13.715 0 0 1 -8.92 3.306z"/><path d="m71 59a1 1 0 0 1 -.648-.239l-25.21-21.5a1 1 0 1 1 1.3-1.522l25.21 21.5a1 1 0 0 1 -.652 1.761z"/><path d="m3 60a1 1 0 0 1 -.661-1.75l25.361-22.37a1 1 0 1 1 1.322 1.5l-25.361 22.37a1 1 0 0 1 -.661.25z"/></svg>