<svg id="Capa_1" enable-background="new 0 0 511.974 511.974" height="512" viewBox="0 0 511.974 511.974" width="512" xmlns="http://www.w3.org/2000/svg"><g><path d="m448.164 504.474h-384.355c-14.262 0-25.824-11.562-25.824-25.824v-256.232c0-14.262 11.562-25.824 25.824-25.824h384.355c14.262 0 25.824 11.562 25.824 25.824v256.232c.001 14.262-11.561 25.824-25.824 25.824z" fill="#365e7d"/><path d="m448.164 196.594h-17.536c14.262 0 25.824 11.562 25.824 25.824v256.232c0 14.262-11.562 25.824-25.824 25.824h17.536c14.263 0 25.824-11.562 25.824-25.824v-256.232c.001-14.262-11.561-25.824-25.824-25.824z" fill="#2b4d66"/><path d="m438.205 230.973h-353.487c-.774 0-1.404.666-1.404 1.485v236.153c0 .819.63 1.485 1.404 1.485h353.487c.775 0 1.405-.667 1.405-1.485v-236.153c.001-.819-.63-1.485-1.405-1.485z" fill="#d3effb"/><path d="m438.205 230.973h-18.76c.775 0 1.405.666 1.405 1.485v236.153c0 .819-.63 1.485-1.405 1.485h18.76c.775 0 1.405-.666 1.405-1.485v-236.153c.001-.819-.63-1.485-1.405-1.485z" fill="#b1e4f9"/><path d="m380.737 432.985c-52.644 17.088-39.924-29.515-72.8-43.902-15.564-6.811-25.829-21.94-25.829-38.928v-27.425h-52.241v27.105c0 17.324-10.033 33.291-25.927 40.182-27.243 11.811-32.526 40.218-64.955 33.65-40.694-8.242-55.672 19.059-55.672 19.059v25.886c0 .818.63 1.485 1.404 1.485h353.487c.775 0 1.405-.667 1.405-1.485v-20.358c-10.008-12.379-28.37-25.17-58.872-15.269z" fill="#f6f1f1"/><path d="m269.593 350.903v12.082c0 16.989 10.266 32.117 25.829 38.928 32.876 14.387 20.157 60.99 72.8 43.902 38.288-12.427 57.451 10.897 64.969 24.28h5.013c.775 0 1.405-.667 1.405-1.485v-20.358c-.001-.001-.001-.001-.002-.002-23.91-29.56-51.924-16.111-68.341-12.719-26.95 5.562-32.685-9.839-41.657-25.067-10.353-17.572-16.335-18.014-25.97-23.55-8.88-5.102-15.594-13.09-19.012-22.482-4.032-11.077-1.945-17.838-2.521-41.705h-52.241v12.831h24.383c8.476.002 15.345 6.872 15.345 15.345z" fill="#dae4ea"/><path d="m191.007 280.454 18.721-20.079h83.675l27.563 20.079-21.73 35.16c-2.733 4.423-7.562 7.115-12.761 7.115h-60.978c-5.199 0-10.027-2.692-12.761-7.115z" fill="#365e7d"/><path d="m307.839 260.375-34.723 55.24c-2.733 4.423-7.562 7.115-12.761 7.115h26.121c5.199 0 10.028-2.692 12.761-7.115l21.73-35.16z" fill="#2b4d66"/><g fill="#dd636e"><path d="m164.345 230.834-46.413 29.541 10.419 96.283 21.47-46.608 33.793-29.596 5.888-30.79z"/><path d="m347.629 230.834 46.413 29.541-10.418 96.283-21.47-46.608-33.794-29.596-5.888-30.79z"/></g><g><path d="m322.155 72.388-17.621-10.04h-96.461l-18.253 10.04c-17.437 27.495-26.98 59.65-26.98 92.894v115.173h186.295v-115.173c-.001-33.244-9.543-65.399-26.98-92.894z" fill="#f6f1f1"/></g><path d="m322.155 72.388-17.621-10.04h-21.328l17.621 10.04c17.437 27.495 26.98 59.65 26.98 92.894v115.172h21.328v-115.172c-.001-33.244-9.543-65.399-26.98-92.894z" fill="#dae4ea"/><circle cx="255.987" cy="164.166" fill="#d3effb" r="55.431"/><path d="m255.987 108.735c-3.839 0-7.586.391-11.205 1.134 25.242 5.182 44.226 27.522 44.226 54.297s-18.984 49.115-44.226 54.297c3.619.743 7.366 1.134 11.205 1.134 30.613 0 55.431-24.817 55.431-55.431 0-30.613-24.817-55.431-55.431-55.431z" fill="#b1e4f9"/><path d="m322.155 72.388c-9.027-14.233-20.166-27.219-33.199-38.457l-28.952-24.964c-2.308-1.991-5.726-1.991-8.035 0l-28.951 24.963c-13.033 11.238-24.173 24.224-33.199 38.457h132.336z" fill="#dd636e"/><path d="m288.955 33.931-28.951-24.964c-2.308-1.991-5.726-1.991-8.035 0l-6.646 5.731 22.305 19.232c13.033 11.238 24.172 24.224 33.199 38.457h21.328c-9.027-14.232-20.167-27.218-33.2-38.456z" fill="#da4a54"/><g><path d="m68.37 356.658v-12.247c0-4.143-3.357-7.5-7.5-7.5s-7.5 3.357-7.5 7.5v12.247c0 4.143 3.357 7.5 7.5 7.5s7.5-3.357 7.5-7.5z"/><path d="m193.056 164.167c0 34.7 28.23 62.931 62.931 62.931s62.931-28.23 62.931-62.931-28.23-62.932-62.931-62.932-62.931 28.232-62.931 62.932zm110.861 0c0 26.429-21.502 47.931-47.931 47.931s-47.931-21.502-47.931-47.931c0-26.43 21.502-47.932 47.931-47.932s47.931 21.502 47.931 47.932z"/><path d="m222.447 164.167c0 18.494 15.046 33.54 33.54 33.54s33.541-15.046 33.541-33.54-15.047-33.541-33.541-33.541-33.54 15.047-33.54 33.541zm52.081 0c0 10.223-8.317 18.54-18.541 18.54-10.223 0-18.54-8.317-18.54-18.54 0-10.224 8.317-18.541 18.54-18.541s18.541 8.317 18.541 18.541z"/><path d="m204.372 426.213c-5.982-3.422-12.94-4.311-19.586-2.5-13.726 3.735-21.854 17.941-18.119 31.668 1.084 3.983 5.191 6.357 9.206 5.269 3.997-1.088 6.355-5.21 5.269-9.206-1.563-5.746 1.838-11.693 7.583-13.257 2.782-.759 5.695-.387 8.199 1.047 2.503 1.432 4.299 3.753 5.056 6.536 1.088 3.997 5.211 6.352 9.206 5.269 3.997-1.088 6.355-5.21 5.269-9.206-1.81-6.652-6.101-12.198-12.083-15.62z"/><path d="m308.874 425.881c-5.726-1.516-11.701-.712-16.823 2.265-5.122 2.978-8.777 7.771-10.293 13.498-1.061 4.004 1.326 8.109 5.331 9.169 3.998 1.061 8.108-1.326 9.169-5.331.491-1.853 1.674-3.404 3.331-4.367 1.658-.965 3.594-1.225 5.446-.733s3.404 1.674 4.367 3.331c.964 1.657 1.224 3.591.733 5.444-1.258 4.75 2.326 9.422 7.255 9.422 3.319 0 6.355-2.222 7.245-5.582 1.517-5.727.712-11.701-2.265-16.822-2.976-5.123-7.77-8.779-13.496-10.294z"/><path d="m249.426 365.248c.643 3.69.877 8.431-1.218 11.051-1.783 2.23-2.452 5.224-1.195 7.787 1.498 3.054 4.237 4.518 6.95 4.518 2.169 0 4.321-.937 5.805-2.745 5.133-6.264 5.495-15.616 4.418-22.912-.748-5.066-6.237-7.908-10.796-5.576-2.897 1.484-4.522 4.672-3.964 7.877z"/><path d="m448.164 189.094h-91.53v-23.812c0-13.233-1.467-26.507-4.359-39.45-.903-4.041-4.913-6.587-8.955-5.684s-6.587 4.913-5.684 8.955c2.653 11.871 3.998 24.044 3.998 36.179v107.672c-5.172 0-31.429 0-36.616 0v-14.519c0-4.143-3.357-7.5-7.5-7.5s-7.5 3.357-7.5 7.5v14.519h-68.062v-14.519c0-4.143-3.357-7.5-7.5-7.5s-7.5 3.357-7.5 7.5v14.519c-5.187 0-31.445 0-36.616 0v-107.673c0-30.441 8.338-59.882 23.654-85.394h123.949c4.14 6.888 7.783 14.073 10.877 21.486 1.597 3.824 5.987 5.629 9.811 4.033 3.822-1.596 5.628-5.988 4.033-9.811-10.755-25.767-27.632-49.085-48.811-67.346l-28.95-24.963c-5.084-4.385-12.749-4.383-17.831 0l-28.95 24.963c-39.898 34.402-62.781 84.349-62.781 137.03v23.812h-91.531c-18.376 0-33.325 14.949-33.325 33.324v68.164c0 4.143 3.357 7.5 7.5 7.5s7.5-3.357 7.5-7.5v-68.164c0-10.104 8.221-18.324 18.325-18.324h91.53v19.379h-70.622c-4.91 0-8.904 4.031-8.904 8.985v236.153c0 4.954 3.994 8.984 8.904 8.984h353.487c4.91 0 8.905-4.03 8.905-8.984v-236.15c0-4.954-3.995-8.985-8.905-8.985h-81.571v-19.379h91.53c10.104 0 18.325 8.221 18.325 18.324v256.232c0 10.104-8.221 18.324-18.325 18.324h-384.354c-10.104 0-18.325-8.221-18.325-18.324v-157.176c0-4.143-3.357-7.5-7.5-7.5s-7.5 3.357-7.5 7.5v157.176c0 18.375 14.949 33.324 33.325 33.324h384.354c18.376 0 33.325-14.949 33.325-33.324v-256.232c.001-18.375-14.949-33.324-33.325-33.324zm-220.248-149.484 28.07-24.204 28.071 24.204c8.758 7.552 16.706 16.053 23.711 25.277h-103.61c6.956-9.148 14.895-17.634 23.758-25.277zm121.218 248.344c4.143 0 7.5-3.357 7.5-7.5v-34.998l29.45 18.744-6.999 64.681-10.12-21.968c-.44-.957-1.078-1.811-1.87-2.504l-18.788-16.455zm-41.619 0-14.658 23.717c-1.377 2.229-3.763 3.559-6.381 3.559h-4.368-.683v-11.374c0-4.143-3.357-7.5-7.5-7.5s-7.5 3.357-7.5 7.5v11.374h-20.876v-11.374c0-4.143-3.357-7.5-7.5-7.5s-7.5 3.357-7.5 7.5v11.374h-.683-4.368c-2.619 0-5.004-1.33-6.381-3.559l-14.658-23.717zm-144.675 0h.827l-18.788 16.455c-.792.693-1.43 1.547-1.87 2.504l-10.12 21.968-6.999-64.681 29.45-18.745v34.999c0 4.142 3.358 7.5 7.5 7.5zm-24.465-49.482-24.47 15.575c-2.407 1.532-3.736 4.297-3.429 7.134l10.419 96.283c.812 7.511 11.071 9.274 14.268 2.331l20.802-45.156 30.469-26.686h.392l19.531 31.603c3.572 5.782 9.412 9.542 16.01 10.453v19.825c0 14.591-8.404 27.662-21.41 33.301-11.643 5.047-19.562 12.668-26.55 19.391-10.682 10.278-17.737 17.07-33.933 13.79-23.529-4.767-39.558 1.114-49.66 8.101v-185.945zm293.736 192.731c-14.868-9.988-33.39-11.939-53.689-5.351-12.463 4.047-21.365 4.412-27.206 1.11-5.246-2.962-8.693-9.019-12.685-16.032-1.447-2.543-2.943-5.173-4.618-7.812-2.22-3.496-6.854-4.529-10.352-2.312-3.497 2.22-4.532 6.854-2.312 10.352 1.48 2.332 2.887 4.803 4.246 7.191 8.656 15.214 19.433 34.145 57.558 21.771 20.27-6.58 36.76-2.908 49.059 10.896v11.581h-341.298v-17.663c3.454-4.787 16.995-19.928 46.683-13.916 23.901 4.842 36.339-7.125 47.311-17.683 6.37-6.129 12.957-12.466 22.116-16.438 18.493-8.018 30.443-26.491 30.443-47.062v-19.604h37.241v19.925c0 18.03 9.952 34.752 25.972 43.64 3.625 2.011 8.188.701 10.197-2.92 2.009-3.622.702-8.188-2.92-10.197-11.257-6.244-18.249-17.94-18.249-30.522v-20.145c6.596-.91 12.436-4.67 16.009-10.452l19.532-31.604h.392l30.469 26.686 20.802 45.156c3.197 6.945 13.456 5.179 14.268-2.331l10.419-96.283c.308-2.837-1.021-5.602-3.429-7.134l-24.471-15.575h58.512z"/></g></g></svg>