<svg height="512" viewBox="0 0 512 512" width="512" xmlns="http://www.w3.org/2000/svg"><g id="Two_Tone" data-name="Two Tone"><rect fill="#64b5f6" height="464" rx="96" width="464" x="24" y="24"/><path d="m442.888 69.112a71.78 71.78 0 0 1 21.112 50.888v272a72.081 72.081 0 0 1 -72 72h-272a71.78 71.78 0 0 1 -50.888-21.112l-16.994 16.994a95.7 95.7 0 0 0 67.882 28.118h272a96 96 0 0 0 96-96v-272a95.7 95.7 0 0 0 -28.118-67.882z" fill="#2096f3"/><path d="m48 392v-272a72.081 72.081 0 0 1 72-72h272a71.78 71.78 0 0 1 50.888 21.112l16.994-16.994a95.7 95.7 0 0 0 -67.882-28.118h-272a96 96 0 0 0 -96 96v272a95.7 95.7 0 0 0 28.118 67.882l16.994-16.994a71.78 71.78 0 0 1 -21.112-50.888z" fill="#90caf9"/><path d="m392 16h-272a104.118 104.118 0 0 0 -104 104v272a104.118 104.118 0 0 0 104 104h272a104.118 104.118 0 0 0 104-104v-272a104.118 104.118 0 0 0 -104-104zm88 376a88.1 88.1 0 0 1 -88 88h-272a88.1 88.1 0 0 1 -88-88v-272a88.1 88.1 0 0 1 88-88h272a88.1 88.1 0 0 1 88 88z" fill="#0d47a0"/><g fill="#ffd54f"><path d="m408 240h-40v16h32v144h-288v-144h32v-16h-40a8 8 0 0 0 -8 8v160a8 8 0 0 0 8 8h304a8 8 0 0 0 8-8v-160a8 8 0 0 0 -8-8z"/><path d="m256 368a7.974 7.974 0 0 0 5.657-2.343l80-80-11.314-11.314-66.343 66.343v-244.686h-16v244.686l-66.343-66.343-11.314 11.314 80 80a7.974 7.974 0 0 0 5.657 2.343z"/></g></g></svg>