<svg enable-background="new 0 0 36 36" height="512" viewBox="0 0 36 36" width="512" xmlns="http://www.w3.org/2000/svg"><path d="m34.904 20.355c-3.782-5.791-3.38-11.727-5.203-14.518s-7.256-7.603-20.093.782-9.572 17.5-7.566 20.569c9.388 14.372 39.561 3.423 32.862-6.833z" fill="#efefef"/><path d="m6.75 13.25v-4.5c0-1.105.895-2 2-2h18.5c1.105 0 2 .895 2 2v4.5c0 1.105-.895 2-2 2h-18.5c-1.105 0-2-.895-2-2z" fill="#2fdf84"/><path d="m9 13.25v-4.5c0-1.105.895-2 2-2h-2.25c-1.105 0-2 .895-2 2v4.5c0 1.105.895 2 2 2h2.25c-1.105 0-2-.895-2-2z" fill="#00b871"/><path d="m22 25.25-4 4-4-4z" fill="#f3f3f1"/><g fill="#a4afc1"><path d="m31.75 7.5c-.827 0-1.5-.673-1.5-1.5s.673-1.5 1.5-1.5 1.5.673 1.5 1.5-.673 1.5-1.5 1.5zm0-2c-.275 0-.5.225-.5.5s.225.5.5.5.5-.225.5-.5-.225-.5-.5-.5z"/><path d="m4.556 25.707h1v2h-1z" transform="matrix(.707 -.707 .707 .707 -17.404 11.397)"/><path d="m8.621 29.773h1v2h-1z" transform="matrix(.707 -.707 .707 .707 -19.083 15.453)"/><path d="m3.879 30.273h2v1h-2z" transform="matrix(.707 -.707 .707 .707 -20.331 12.463)"/><path d="m7.944 26.207h2v1h-2z" transform="matrix(.707 -.707 .707 .707 -16.265 14.147)"/></g><path d="m27.25 16h-18.5c-1.517 0-2.75-1.233-2.75-2.75v-4.5c0-1.517 1.233-2.75 2.75-2.75h18.5c1.517 0 2.75 1.233 2.75 2.75v4.5c0 1.517-1.233 2.75-2.75 2.75zm-18.5-8.5c-.689 0-1.25.561-1.25 1.25v4.5c0 .689.561 1.25 1.25 1.25h18.5c.689 0 1.25-.561 1.25-1.25v-4.5c0-.689-.561-1.25-1.25-1.25z"/><path d="m17.25 18.75h1.5v6.5h-1.5z"/><path d="m18 30c-.192 0-.384-.073-.53-.22l-4-4c-.215-.215-.278-.537-.163-.817.116-.28.39-.463.693-.463h8c.304 0 .577.183.693.463.115.28.052.603-.163.817l-4 4c-.146.147-.338.22-.53.22zm-2.189-4 2.189 2.189 2.189-2.189z"/></svg>