<svg height="512" viewBox="0 0 64 64" width="512" xmlns="http://www.w3.org/2000/svg"><g id="Startup_rocket" data-name="Startup rocket"><path d="m58 53h-52v-34a4 4 0 0 1 4-4h44a4 4 0 0 1 4 4z" fill="#1e81ce"/><path d="m10 19h44v30h-44z" fill="#ffdaaa"/><path d="m10 49h44v-30c0 16.582-19.68 30-44 30z" fill="#ffc477"/><path d="m49 36a5 5 0 0 0 -5 5 4 4 0 0 0 -4 4 3.786 3.786 0 0 0 .21 1.26 2.888 2.888 0 0 0 -1.21-.26 3 3 0 0 0 -3 3h18v-8a5 5 0 0 0 -5-5z" fill="#ee8700"/><path d="m25 46a2.888 2.888 0 0 0 -1.21.26 3.786 3.786 0 0 0 .21-1.26 4 4 0 0 0 -4-4 5 5 0 0 0 -10 0v8h18a3 3 0 0 0 -3-3z" fill="#ff9811"/><path d="m6 53h-3v2a6 6 0 0 0 6 6h46a6 6 0 0 0 6-6v-2z" fill="#1a6fb0"/><path d="m28 57h8a2 2 0 0 0 2-2v-2h-12v2a2 2 0 0 0 2 2z" fill="#ffcd00"/><path d="m35.714 7.7a17.957 17.957 0 0 0 -2.986-3.976l-.728-.724-.728.728a17.957 17.957 0 0 0 -2.986 3.972 5.97 5.97 0 0 0 7.428 0z" fill="#d80027"/><path d="m38 16.46v14.54h-12v-14.54a18 18 0 0 1 2.29-8.76 5.944 5.944 0 0 0 7.42 0 18 18 0 0 1 2.29 8.76z" fill="#ff5023"/><g fill="#d80027"><path d="m38 23v6h6a6 6 0 0 0 -6-6z"/><path d="m20 29h6v-6a6 6 0 0 0 -6 6z"/><path d="m33 28 1-6h-4l1 6z"/></g><path d="m34 34 1-3h-6l1 3z" fill="#58595b"/><path d="m32 37a3 3 0 0 0 -3 3c0 1.657 3 5 3 5s3-3.343 3-5a3 3 0 0 0 -3-3z" fill="#ff5023"/><path d="m61 52h-2v-33a5.006 5.006 0 0 0 -5-5h-15.176a18.84 18.84 0 0 0 -5.389-10.979l-.728-.728a1 1 0 0 0 -1.414 0l-.728.728a18.84 18.84 0 0 0 -5.389 10.979h-15.176a5.006 5.006 0 0 0 -5 5v33h-2a1 1 0 0 0 -1 1v2a7.008 7.008 0 0 0 7 7h46a7.008 7.008 0 0 0 7-7v-2a1 1 0 0 0 -1-1zm-19.846-6.071a2.749 2.749 0 0 1 -.154-.929 3 3 0 0 1 3-3 1 1 0 0 0 1-1 4 4 0 0 1 8 0v7h-15.722a1.993 1.993 0 0 1 1.722-1 1.9 1.9 0 0 1 .793.168 1 1 0 0 0 1.361-1.239zm11.846-9.389a5.99 5.99 0 0 0 -9.931 3.547 5.008 5.008 0 0 0 -4.069 4.913 4 4 0 0 0 -3.858 3h-6.284a4 4 0 0 0 -3.858-3 5.008 5.008 0 0 0 -4.069-4.913 5.99 5.99 0 0 0 -9.931-3.547v-16.54h14v2.08a7 7 0 0 0 -6 6.92 1 1 0 0 0 1 1h5v1a1 1 0 0 0 1 1h2.279l.772 2.316a1 1 0 0 0 .949.684h4a1 1 0 0 0 .949-.684l.772-2.316h2.279a1 1 0 0 0 1-1v-1h5a1 1 0 0 0 1-1 7 7 0 0 0 -6-6.92v-2.08h14zm-42 4.46a4 4 0 0 1 8 0 1 1 0 0 0 1 1 3 3 0 0 1 3 3 2.749 2.749 0 0 1 -.154.929 1 1 0 0 0 1.361 1.239 1.9 1.9 0 0 1 .793-.168 1.993 1.993 0 0 1 1.722 1h-15.722zm17.662-31.849a6.986 6.986 0 0 0 6.676 0 16.92 16.92 0 0 1 1.662 7.305v13.544h-10v-13.544a16.92 16.92 0 0 1 1.662-7.305zm10.338 14.949a5.013 5.013 0 0 1 3.9 3.9h-3.9zm-5.387 7.9-.334 1h-2.558l-.334-1zm-8.613-4h-3.9a5.013 5.013 0 0 1 3.9-3.9zm6.979-23.565.021-.021.021.021a17.076 17.076 0 0 1 2.351 2.959 5.107 5.107 0 0 1 -4.744 0 17.076 17.076 0 0 1 2.351-2.959zm-24.979 14.565a3 3 0 0 1 3-3h15.022c0 .153-.022.3-.022.456v1.544h-15a1 1 0 0 0 -1 1v30a1 1 0 0 0 1 1h44a1 1 0 0 0 1-1v-30a1 1 0 0 0 -1-1h-15v-1.544c0-.153-.019-.3-.022-.456h15.022a3 3 0 0 1 3 3v33h-50zm20 35h10v1a1 1 0 0 1 -1 1h-8a1 1 0 0 1 -1-1zm33 1a5.006 5.006 0 0 1 -5 5h-46a5.006 5.006 0 0 1 -5-5v-1h21v1a3 3 0 0 0 3 3h8a3 3 0 0 0 3-3v-1h21z"/><path d="m31 29h2a1 1 0 0 0 .986-.835l1-6a1 1 0 0 0 -.986-1.165h-4a1 1 0 0 0 -.986 1.165l1 6a1 1 0 0 0 .986.835zm1.819-6-.666 4h-.306l-.666-4z"/><path d="m32 19a1 1 0 0 0 1-1v-4a1 1 0 0 0 -2 0v4a1 1 0 0 0 1 1z"/><path d="m32 36a4 4 0 0 0 -4 4c0 1.941 2.712 5.062 3.256 5.668a1 1 0 0 0 1.488 0c.544-.606 3.256-3.727 3.256-5.668a4 4 0 0 0 -4-4zm0 7.451c-1.063-1.332-2-2.831-2-3.451a2 2 0 0 1 4 0c0 .637-.939 2.125-2 3.451z"/></g></svg>