<svg id="_x31__x2C_5" enable-background="new 0 0 24 24" height="512" viewBox="0 0 24 24" width="512" xmlns="http://www.w3.org/2000/svg"><path d="m21.25 21.25h-18.5c-1.105 0-2-.895-2-2v-7.5c0-1.105.895-2 2-2h18.5c1.105 0 2 .895 2 2v7.5c0 1.105-.895 2-2 2z" fill="#00bcd4"/><path d="m13.75 12.75v-6.5c0-.97.39-1.84 1.03-2.47.23-.23.49-.43.77-.59-1.16.26-2.23.79-3.14 1.51-1.33 1.27-2.16 3.06-2.16 5.05v3h-3.5l5.25 5.5 5.25-5.5z" fill="#607d8b"/><path d="m21.25 22h-18.5c-1.517 0-2.75-1.233-2.75-2.75v-7.5c0-1.517 1.233-2.75 2.75-2.75h3.5c.414 0 .75.336.75.75s-.336.75-.75.75h-3.5c-.689 0-1.25.561-1.25 1.25v7.5c0 .689.561 1.25 1.25 1.25h18.5c.689 0 1.25-.561 1.25-1.25v-7.5c0-.689-.561-1.25-1.25-1.25h-3.5c-.414 0-.75-.336-.75-.75s.336-.75.75-.75h3.5c1.517 0 2.75 1.233 2.75 2.75v7.5c0 1.517-1.233 2.75-2.75 2.75z"/><path d="m12 19c-.205 0-.401-.084-.543-.232l-5.25-5.5c-.207-.217-.265-.537-.146-.813s.389-.455.689-.455h2.75v-2.25c0-4.273 3.477-7.75 7.75-7.75.414 0 .75.336.75.75s-.336.75-.75.75c-1.517 0-2.75 1.233-2.75 2.75v5.75h2.75c.3 0 .571.179.689.455s.061.596-.146.813l-5.25 5.5c-.142.148-.338.232-.543.232zm-3.497-5.5 3.497 3.664 3.497-3.664h-1.747c-.414 0-.75-.336-.75-.75v-6.5c0-.433.065-.851.186-1.245-1.337 1.148-2.186 2.849-2.186 4.745v3c0 .414-.336.75-.75.75z"/></svg>