<svg id="Capa_1" enable-background="new 0 0 515.245 515.245" height="512" viewBox="0 0 515.245 515.245" width="512" xmlns="http://www.w3.org/2000/svg"><g><g id="XMLID_220_"><g><path d="m369.593 201.566-13.15 32.5-90.02 267.36c-2.84 8.43-14.76 8.43-17.6 0l-90.02-267.36-11.52-32.5z" fill="#fddeb0"/></g></g><path d="m193.534 201.566h-10.777-35.475l11.52 32.5 90.02 267.36c2.84 8.43 14.76 8.43 17.6 0l14.16-42.055-70.962-210.757c-1.276-3.79 2.62-7.422 6.218-5.676.026.013.052.025.078.038l6.828 3.388c10.153 5.037 21.561 7.7 32.989 7.7h.001c11.43 0 22.836-2.663 32.988-7.699l6.828-3.388c2.954-1.466 6.458-1.353 9.287.342 11.479 6.879 24.47 10.48 38.003 10.48 2.365 0 4.725-.118 7.072-.344l6.529-19.39 13.15-32.5h-176.057z" fill="#fdd79b"/><path d="m369.593 201.566-13.15 32.5-2.9 8.61-168.27 70.01-13.87-41.198 89.98-37.422 87.48-32.5z" fill="#fccd7f"/><g fill="#fbc56d"><path d="m225.551 295.928-13.869-41.192-40.279 16.752 1.068 3.172 12.803 38.025z"/><path d="m227.078 248.333c9.014 3.757 18.827 5.732 28.657 5.732h.001c11.43 0 22.836-2.663 32.988-7.699l6.828-3.388c2.954-1.466 6.458-1.353 9.287.342 7.684 4.605 16.048 7.733 24.797 9.303l23.907-9.947 2.9-8.61 13.15-32.5h-20.73l-87.48 32.5z"/></g><path d="m369.597 119.474c0-61.841-50.133-111.974-111.974-111.974-61.842 0-111.974 50.133-111.974 111.974v82.087h223.949v-82.087z" fill="#fec0dd"/><path d="m286.677 11.306c-9.262-2.48-19.01-3.806-29.054-3.806-61.842 0-111.974 50.133-111.974 111.974v82.087h58.077v-82.087c-.001-51.797 35.188-95.377 82.951-108.168z" fill="#fea3ce"/><g><path d="m144.082 150.383c-6.614.073-13.022 3.529-16.582 9.665-5.373 9.264-2.218 21.132 7.046 26.505l1.15.667 27.294 20.279h196.669l19.891-20.279 1.149-.666c9.264-5.374 12.419-17.241 7.046-26.505-3.358-5.791-9.253-9.195-15.464-9.621z" fill="#fea3ce"/><path d="m235.506 203.603-27.294-20.279-1.15-.667c-9.264-5.374-12.419-17.241-7.046-26.505 1.342-2.313 3.089-4.244 5.098-5.758l-61.033-.012c-6.614.073-13.022 3.529-16.582 9.665-5.373 9.264-2.219 21.132 7.046 26.505l1.15.667 27.294 20.279h196.669l3.821-3.896h-127.973z" fill="#fe7ab6"/><g><path d="m255.735 234.064c-8.278 0-16.554-1.871-24.1-5.616l-14.253-7.072c-5.265-2.613-11.452-2.039-16.147 1.496-17.449 13.138-40.93 14.545-59.821 3.587l-8.755-5.077c-9.264-5.374-12.419-17.241-7.046-26.505 5.374-9.264 17.242-12.419 26.506-7.046l8.755 5.078c5.378 3.119 12.064 2.72 17.031-1.021 16.492-12.416 38.221-14.431 56.715-5.256l14.254 7.072c4.298 2.132 9.427 2.131 13.723 0l14.255-7.073c18.49-9.176 40.223-7.161 56.715 5.257 4.968 3.74 11.652 4.141 17.031 1.021l8.755-5.078c9.265-5.372 21.132-2.22 26.506 7.046 5.373 9.264 2.219 21.132-7.046 26.505l-8.755 5.077c-18.891 10.958-42.373 9.551-59.821-3.587-4.696-3.535-10.882-4.109-16.147-1.496l-14.254 7.072c-7.545 3.744-15.825 5.616-24.101 5.616z" fill="#fec0dd"/></g><g><path d="m201.097 188.208c1.2-2.771 2.726-5.13 4.474-7.049-9.827.9-19.404 4.509-27.667 10.729-4.967 3.741-11.653 4.14-17.031 1.021l-8.755-5.078c-9.263-5.372-21.132-2.218-26.505 7.046s-2.219 21.132 7.046 26.505l8.755 5.077c18.891 10.958 42.371 9.551 59.821-3.587 1.199-.903 2.496-1.61 3.85-2.123-6.835-8.012-8.717-21.623-3.988-32.541z" fill="#fea3ce"/></g><g id="XMLID_221_"><g fill="#fccd7f"><path d="m298.39 406.483-31.967 94.943c-2.84 8.43-14.76 8.43-17.6 0l-21.95-65.19z"/><path d="m335.163 297.268-18.39 54.618-103.76 43.17-13.877-41.198z"/></g></g></g><path d="m266.423 501.426 14.16-42.055-13.432-39.892-40.278 16.757 21.95 65.19c2.84 8.43 14.76 8.43 17.6 0z" fill="#fbc56d"/><path d="m239.414 337.101-40.278 16.757 13.877 41.198 40.273-16.756z" fill="#fbc56d"/><g><path d="m391.456 187.194c7.157-8.436 8.636-20.806 2.777-30.908-3.754-6.472-9.976-11.008-17.137-12.683v-24.129c0-2.196-.066-4.489-.197-6.816-.232-4.136-3.764-7.291-7.91-7.067-4.135.233-7.299 3.774-7.066 7.91.115 2.048.174 4.058.174 5.973v23.453h-44.236c-4.143 0-7.5 3.358-7.5 7.5s3.357 7.5 7.5 7.5h54.132c3.866.338 7.317 2.525 9.266 5.884 2.932 5.057 1.701 11.393-2.619 15.042-6.855-2.039-14.501-1.371-21.162 2.491l-8.755 5.078c-2.766 1.604-6.204 1.399-8.757-.524-18.775-14.137-43.512-16.429-64.56-5.984l-14.255 7.072c-2.208 1.096-4.848 1.096-7.058 0l-14.254-7.073c-21.049-10.443-45.789-8.15-64.56 5.984-2.555 1.924-5.991 2.129-8.757.524l-8.755-5.078c-6.661-3.864-14.307-4.532-21.163-2.492-4.319-3.649-5.55-9.984-2.618-15.041 2.127-3.666 5.931-5.882 10.092-5.928l99.541.035h.003c4.141 0 7.499-3.356 7.5-7.498s-3.355-7.501-7.497-7.502l-90.478-.031v-23.413c.001-57.606 46.868-104.473 104.476-104.473 43.747 0 83.205 27.603 98.185 68.686 1.418 3.891 5.722 5.896 9.615 4.477 3.892-1.419 5.896-5.724 4.477-9.616-17.131-46.981-62.251-78.547-112.277-78.547-65.879 0-119.475 53.596-119.475 119.474v24.14c-7.122 1.686-13.399 6.229-17.137 12.672-5.859 10.102-4.38 22.474 2.777 30.909-1.022 1.204-1.958 2.508-2.777 3.921-7.438 12.827-3.055 29.316 9.772 36.756l8.754 5.077c4.126 2.394 8.446 4.264 12.872 5.626l89.31 265.245c2.337 6.941 8.579 11.426 15.903 11.426s13.566-4.485 15.902-11.425l10.711-31.809c1.322-3.926-.788-8.18-4.714-9.501-3.925-1.321-8.181.789-9.501 4.714l-10.712 31.81c-.101.299-.407 1.211-1.687 1.211s-1.586-.912-1.688-1.212l-19.717-58.558 49.783-20.712-5.775 17.152c-1.322 3.925.788 8.179 4.714 9.501.794.267 1.601.394 2.395.394 3.131 0 6.053-1.977 7.106-5.109l68.395-203.127c4.425-1.362 8.745-3.232 12.871-5.626l8.755-5.077c12.827-7.44 17.211-23.929 9.772-36.755-.818-1.415-1.753-2.719-2.776-3.923zm-141.702 98.663c1.199 2.883 3.989 4.621 6.928 4.621.96 0 1.937-.186 2.878-.577l81.598-33.949-12.024 35.71-125.449 52.193-9.069-26.934 34.53-14.366c3.824-1.591 5.635-5.981 4.044-9.806-1.592-3.825-5.983-5.634-9.806-4.044l-33.566 13.965-9.069-26.934 82.895-34.489c7.455-.73 14.761-2.781 21.411-6.08l14.255-7.072c2.705-1.344 5.888-1.048 8.302.769 9.129 6.874 19.71 10.919 30.567 12.081l-84.38 35.107c-3.825 1.591-5.635 5.981-4.045 9.805zm60.995 60.409-93.196 38.774-9.069-26.934 114.289-47.55zm-134.798-84.78-6.804-20.207c13.567.302 27.146-3.876 38.486-12.414 2.415-1.818 5.595-2.112 8.304-.77l14.253 7.072c1.427.708 2.894 1.338 4.376 1.932zm55.469 164.739-9.069-26.934 82.036-34.131-12.024 35.71zm145.516-211.329-8.756 5.078c-16.278 9.442-36.512 8.23-51.546-3.092-6.978-5.252-16.171-6.104-23.991-2.222l-14.254 7.072c-6.373 3.162-13.555 4.833-20.767 4.834-7.211 0-14.393-1.672-20.768-4.834l-14.252-7.072c-3.255-1.615-6.747-2.411-10.219-2.411-4.871 0-9.7 1.567-13.774 4.634-15.033 11.32-35.267 12.534-51.546 3.091l-8.755-5.077c-5.673-3.29-7.611-10.582-4.322-16.254 3.291-5.672 10.584-7.611 16.256-4.322l8.755 5.078c7.993 4.636 17.927 4.04 25.305-1.517 14.21-10.7 32.938-12.434 48.871-4.53l14.255 7.073c6.382 3.166 14.005 3.166 20.389 0l14.256-7.073c15.933-7.908 34.658-6.17 48.87 4.53 7.378 5.556 17.312 6.152 25.305 1.517l8.754-5.078c5.674-3.29 12.968-1.352 16.256 4.321 3.289 5.671 1.351 12.963-4.322 16.254z"/><path d="m269.651 157.922 18.103.005h.002c4.142 0 7.499-3.356 7.5-7.498.001-4.143-3.355-7.501-7.498-7.502l-18.103-.005c-.001 0-.001 0-.002 0-4.142 0-7.499 3.356-7.5 7.498s3.355 7.5 7.498 7.502z"/><path d="m262.36 45.366-3.646-6.872c-1.94-3.658-6.479-5.052-10.14-3.11-3.659 1.941-5.052 6.481-3.11 10.14l3.646 6.872c1.347 2.54 3.944 3.987 6.632 3.987 1.185 0 2.388-.282 3.508-.876 3.659-1.942 5.051-6.482 3.11-10.141z"/><path d="m220.039 77.207c-2.996 2.86-3.106 7.607-.246 10.604l4.244 4.446c1.474 1.543 3.448 2.321 5.426 2.321 1.861 0 3.726-.688 5.178-2.075 2.996-2.86 3.106-7.607.246-10.604l-4.244-4.446c-2.862-2.996-7.609-3.105-10.604-.246z"/><path d="m180.168 95.25-4.042 5.659c-2.407 3.371-1.626 8.055 1.744 10.462 1.321.944 2.845 1.397 4.353 1.397 2.341 0 4.646-1.092 6.11-3.142l4.042-5.659c2.407-3.371 1.626-8.055-1.744-10.462-3.372-2.407-8.055-1.624-10.463 1.745z"/><path d="m267.142 109.94c.47 0 .948-.044 1.427-.137l8.392-1.617c4.067-.784 6.729-4.716 5.945-8.784-.783-4.066-4.715-6.731-8.783-5.945l-8.392 1.617c-4.067.784-6.729 4.716-5.945 8.784.691 3.588 3.833 6.082 7.356 6.082z"/><path d="m309.183 75.718c-3.372 2.405-4.157 7.088-1.752 10.461l4.323 6.063c1.464 2.052 3.771 3.146 6.113 3.146 1.506 0 3.027-.453 4.348-1.394 3.372-2.405 4.157-7.088 1.752-10.461l-4.323-6.063c-2.404-3.371-7.087-4.158-10.461-1.752z"/></g></g></svg>