<?xml version="1.0" encoding="iso-8859-1"?>
<!-- Generator: Adobe Illustrator 19.0.0, SVG Export Plug-In . SVG Version: 6.00 Build 0)  -->
<svg version="1.1" id="Layer_1" xmlns="http://www.w3.org/2000/svg" xmlns:xlink="http://www.w3.org/1999/xlink" x="0px" y="0px"
	 viewBox="0 0 511.998 511.998" style="enable-background:new 0 0 511.998 511.998;" xml:space="preserve">
<path style="fill:#484848;" d="M160.647,496.813l16.818-35.616c0.335-0.707,0.508-1.48,0.508-2.262v-77.684h156.052v77.683
	c0,0.782,0.173,1.555,0.508,2.262l16.818,35.616c1.659,3.514-0.904,7.559-4.791,7.559h-181.12
	C161.552,504.373,158.988,500.327,160.647,496.813z"/>
<path style="fill:#333333;" d="M334.023,384.52H223.472v-3.269h-45.5v3.269v37.877v36.539c0,0.782-0.173,1.555-0.508,2.262
	l-16.818,35.616c-1.659,3.514,0.904,7.559,4.791,7.559h45.5c-3.887,0-6.45-4.046-4.791-7.559l16.818-35.616
	c0.335-0.707,0.508-1.48,0.508-2.262v-24.721c0-6.526,5.291-11.816,11.816-11.816h98.734V384.52H334.023z"/>
<path style="fill:#5D5D5D;" d="M54.548,406.312c-9.379,0-17.009-7.63-17.009-17.009V288.638h436.918v100.664
	c0,9.379-7.63,17.009-17.009,17.009H54.548z"/>
<path style="fill:#484848;" d="M83.039,389.302V288.638h-45.5v100.664c0,9.379,7.63,17.009,17.009,17.009h45.5
	C90.67,406.312,83.039,398.681,83.039,389.302z"/>
<path style="fill:#ECB45D;" d="M255.998,384.52c-12.317,0-22.336-10.02-22.336-22.336s10.02-22.336,22.336-22.336
	c12.316,0,22.336,10.02,22.336,22.336S268.314,384.52,255.998,384.52z"/>
<path style="fill:#ACC5E1;" d="M37.539,319.146V117.152c0-9.379,7.63-17.009,17.009-17.009h402.899
	c9.379,0,17.009,7.63,17.009,17.009v201.994H37.539z"/>
<path style="fill:#93B7DB;" d="M100.049,100.142h-45.5c-9.379,0-17.009,7.63-17.009,17.009v201.994h45.5V117.152
	C83.039,107.773,90.67,100.142,100.049,100.142z"/>
<path style="fill:#C5DBEF;" d="M64.778,286.153V133.136c0-3.178,2.576-5.754,5.754-5.754h370.931c3.178,0,5.754,2.576,5.754,5.754
	v153.017c0,3.178-2.576,5.754-5.754,5.754H70.532C67.354,291.907,64.778,289.331,64.778,286.153z"/>
<path style="fill:#BED9ED;" d="M446.578,288.738c-108.194-17.872-296.505-92.367-368.424-161.357h-7.622
	c-3.178,0-5.754,2.576-5.754,5.754v153.017c0,3.178,2.576,5.754,5.754,5.754h370.931
	C443.707,291.907,445.629,290.61,446.578,288.738z"/>
<g>
	<circle style="fill:#E6E7E4;" cx="310.155" cy="280.684" r="39.173"/>
	<circle style="fill:#E6E7E4;" cx="201.841" cy="280.684" r="39.173"/>
	<rect x="232.087" y="175.497" style="fill:#E6E7E4;" width="47.81" height="66.017"/>
</g>
<circle style="fill:#CED0CD;" cx="256.003" cy="263.186" r="39.173"/>
<g>
	<path style="fill:#CD5838;" d="M212.96,80.825l0.277-37.477l-41.618,83.237c-1.684,3.37,0.766,7.335,4.533,7.335h36.809h7.576
		V80.825H212.96z"/>
	<path style="fill:#CD5838;" d="M298.759,43.347l0.277,37.477h-6.373v53.094h6.373h36.809c3.768,0,6.218-3.965,4.533-7.335
		L298.759,43.347z"/>
</g>
<path style="fill:#E6E7E4;" d="M211.87,144.815v-95.32c0-9.052,4.322-17.697,11.563-23.127l19.023-14.267
	c3.866-2.899,8.675-4.496,13.542-4.496c4.867,0,9.676,1.596,13.542,4.497l19.023,14.266c7.24,5.429,11.563,14.075,11.563,23.127
	v95.32H211.87z"/>
<g>
	<path style="fill:#CED0CD;" d="M300.401,280.681c0-16.432,10.121-30.491,24.464-36.308c-4.542-1.842-9.505-2.866-14.709-2.866
		c-21.634,0-39.173,17.539-39.173,39.173s17.539,39.173,39.173,39.173c5.204,0,10.167-1.023,14.709-2.866
		C310.521,311.171,300.401,297.113,300.401,280.681z"/>
	<path style="fill:#CED0CD;" d="M192.085,280.681c0-16.432,10.121-30.491,24.464-36.308c-4.542-1.842-9.505-2.866-14.709-2.866
		c-21.635,0-39.173,17.539-39.173,39.173s17.539,39.173,39.173,39.173c5.204,0,10.167-1.023,14.709-2.866
		C202.205,311.171,192.085,297.113,192.085,280.681z"/>
	<rect x="232.087" y="175.497" style="fill:#CED0CD;" width="29.418" height="66.017"/>
</g>
<path style="fill:#B7B9B6;" d="M246.243,263.188c0-16.431,10.121-30.491,24.464-36.308c-4.542-1.842-9.505-2.866-14.709-2.866
	c-21.635,0-39.173,17.539-39.173,39.173s17.539,39.173,39.173,39.173c5.204,0,10.167-1.023,14.709-2.866
	C256.363,293.678,246.243,279.618,246.243,263.188z"/>
<path style="fill:#CED0CD;" d="M252.851,26.367l17.856-13.391l-1.166-0.874c-3.866-2.9-8.675-4.497-13.542-4.497
	c-4.867,0-9.676,1.596-13.542,4.496l-19.024,14.266c-7.24,5.429-11.563,14.075-11.563,23.127v95.32h29.418v-95.32
	C241.289,40.443,245.611,31.797,252.851,26.367z"/>
<path style="fill:#5683BF;" d="M255.998,101.232c-12.317,0-22.336-10.02-22.336-22.336s10.02-22.336,22.336-22.336
	c12.316,0,22.336,10.02,22.336,22.336S268.314,101.232,255.998,101.232z"/>
<path style="fill:#CD5838;" d="M201.95,183.886l10.04-40.16h88.016l10.04,40.16c0.573,2.291-1.16,4.512-3.523,4.512h-101.05
	C203.11,188.397,201.377,186.177,201.95,183.886z"/>
<path style="fill:#B72C11;" d="M231.368,183.886l10.04-40.16H211.99l-10.04,40.16c-0.573,2.292,1.16,4.512,3.523,4.512h29.418
	C232.528,188.397,230.795,186.177,231.368,183.886z"/>
<path d="M255.998,392.147c16.522,0,29.963-13.442,29.963-29.963s-13.441-29.963-29.963-29.963s-29.963,13.442-29.963,29.963
	S239.476,392.147,255.998,392.147z M255.998,348.564c7.51,0,13.62,6.109,13.62,13.62s-6.109,13.62-13.62,13.62
	c-7.51,0-13.62-6.109-13.62-13.62S248.487,348.564,255.998,348.564z"/>
<path d="M255.998,48.932c-16.522,0-29.963,13.442-29.963,29.963s13.441,29.963,29.963,29.963s29.963-13.442,29.963-29.963
	S272.52,48.932,255.998,48.932z M255.998,92.515c-7.51,0-13.62-6.109-13.62-13.62s6.109-13.62,13.62-13.62
	c7.51,0,13.62,6.109,13.62,13.62S263.508,92.515,255.998,92.515z"/>
<path d="M457.447,92.515h-125.18c-0.131,0-0.258,0.013-0.388,0.02l-24.69-49.379c-1.61-9.043-6.612-17.31-14.052-22.89L274.116,6
	c-10.668-8.001-25.568-8-36.237,0l-19.023,14.266c-7.44,5.58-12.442,13.846-14.052,22.89l-24.69,49.379
	c-0.13-0.007-0.257-0.02-0.388-0.02H54.548c-13.585,0-24.636,11.053-24.636,24.636v272.15c0,13.585,11.052,24.636,24.636,24.636
	h115.797v44.474l-19.797,41.926c-1.195,2.531-1.012,5.498,0.487,7.863c1.498,2.364,4.103,3.797,6.902,3.797H354.06
	c2.799,0,5.404-1.433,6.902-3.797c1.498-2.365,1.682-5.332,0.487-7.863l-19.798-41.926v-44.473h115.797
	c13.585,0,24.636-11.053,24.636-24.636V117.152C482.084,103.568,471.032,92.515,457.447,92.515z M307.752,80.825l22.189,44.377
	h-22.189V80.825z M220.587,49.495c0-6.322,3.019-12.361,8.076-16.153l19.023-14.267c4.894-3.671,11.731-3.671,16.625,0
	l19.023,14.266c5.057,3.792,8.076,9.831,8.076,16.153v86.603h-70.822L220.587,49.495L220.587,49.495z M218.795,152.442H293.2
	l6.81,27.239h-88.024L218.795,152.442z M301.402,249.62c3.11-1.012,6.383-1.54,9.679-1.54c17.189,0,31.174,13.985,31.174,31.174
	s-13.985,31.174-31.174,31.174c-9.343,0-17.954-4.08-23.837-11.09c10.126-8.835,16.271-21.778,16.271-35.822
	C303.515,258.739,302.777,254.063,301.402,249.62z M260.808,303.422c1.148,3.414,4.331,5.568,7.744,5.568
	c0.864,0,1.743-0.138,2.607-0.429c0.67-0.226,1.331-0.469,1.986-0.721c0.669,0.89,1.364,1.753,2.087,2.588H236.76
	c0.722-0.834,1.422-1.692,2.091-2.581c1.832,0.705,3.722,1.305,5.667,1.789c0.661,0.163,1.323,0.243,1.975,0.243
	c3.666,0,7.002-2.485,7.924-6.204c1.087-4.381-1.582-8.814-5.962-9.901c-13.914-3.454-23.632-15.897-23.632-30.257
	c0-12.994,8.186-24.751,20.368-29.253c4.233-1.566,6.397-6.265,4.832-10.498c-1.438-3.891-5.523-6.024-9.462-5.132v-22.609h30.871
	v22.696c-3.735-0.605-7.51,1.457-8.925,5.131c-1.621,4.211,0.477,8.941,4.689,10.562c11.947,4.601,19.975,16.297,19.975,29.104
	c0,13.407-8.529,25.283-21.225,29.555C261.67,294.511,259.369,299.146,260.808,303.422z M224.749,299.346
	c-5.889,7.003-14.528,11.083-23.835,11.083c-17.189,0-31.174-13.985-31.174-31.174s13.985-31.174,31.174-31.174
	c3.298,0,6.564,0.53,9.669,1.54c-1.367,4.437-2.103,9.11-2.103,13.896C208.481,277.646,214.663,290.551,224.749,299.346z
	 M204.243,80.825v44.377h-22.189L204.243,80.825z M46.255,117.152c0-4.573,3.72-8.293,8.293-8.293h117.406l-10.43,20.861
	c-1.267,2.533-1.132,5.542,0.357,7.952c1.489,2.409,4.12,3.876,6.951,3.876h35.411v1.718l-10.652,42.607
	c-0.611,2.442-0.062,5.027,1.486,7.011c1.548,1.984,3.925,3.143,6.442,3.143h22.751l-0.052,32.196
	c-2.265,2.048-4.326,4.306-6.153,6.737c-5.447-2.105-11.265-3.22-17.152-3.22c-26.201,0-47.517,21.316-47.517,47.517
	c0,11.921,4.423,22.823,11.701,31.174H46.255V117.152z M170.833,495.656l12.862-27.239h104.99c4.513,0,8.172-3.658,8.172-8.172
	c0-4.514-3.659-8.172-8.172-8.172H186.689v-38.135h138.618v46.307c0,1.206,0.267,2.398,0.782,3.489l15.073,31.922H170.833z
	 M465.74,310.429h-40.174c-4.513,0-8.172,3.659-8.172,8.172l0,0c0,4.513,3.659,8.172,8.172,8.172h40.174v62.529
	c0,4.581-3.713,8.293-8.293,8.293H54.548c-4.581,0-8.293-3.713-8.293-8.293v-62.529h339.506c4.513,0,8.172-3.659,8.172-8.172l0,0
	c0-4.513-3.659-8.172-8.172-8.172h-38.864c7.278-8.352,11.701-19.253,11.701-31.174c0-26.201-21.316-47.517-47.517-47.517
	c-5.887,0-11.731,1.104-17.187,3.214c-1.82-2.419-3.868-4.664-6.118-6.706l-0.015-32.222h22.488c1.718,0,3.434-0.446,4.846-1.425
	c2.892-2.005,4.119-5.493,3.309-8.729l-10.652-42.607v-1.718h35.209c1.976,0,3.94-0.615,5.446-1.895
	c2.989-2.541,3.712-6.638,2.065-9.933l-10.43-20.86h117.406c4.579,0,8.293,3.712,8.293,8.293V310.429z"/>
<g>
</g>
<g>
</g>
<g>
</g>
<g>
</g>
<g>
</g>
<g>
</g>
<g>
</g>
<g>
</g>
<g>
</g>
<g>
</g>
<g>
</g>
<g>
</g>
<g>
</g>
<g>
</g>
<g>
</g>
</svg>
