<svg height="496pt" viewBox="0 0 496 496" width="496pt" xmlns="http://www.w3.org/2000/svg"><g fill="#f0bc5e"><path d="m200 440-112-176 40-8 120 184zm0 0"/><path d="m194.703125 352.367188-26.703125-40.367188 40-56 41.472656 12.390625zm0 0"/><path d="m104 88h128v32h-128zm0 0"/></g><path d="m496 352h-16.367188c-3.777343-55.855469-46.511718-102.777344-102.496093-110.792969l-2.265625 15.839844c48.144531 6.890625 85.023437 47.007813 88.761718 94.953125h-16.007812c-3.503906-38.257812-31.871094-70.488281-70.03125-78.238281l-3.1875 15.6875c30.730469 6.238281 53.648438 31.902343 57.097656 62.550781h-15.503906v16h15.527344c-3.703125 33.320312-30.214844 59.824219-63.527344 63.527344v-15.527344h-16v15.527344c-33.3125-3.703125-59.824219-30.207032-63.527344-63.527344h15.527344v-16h-15.496094c3.449219-30.65625 26.367188-56.320312 57.097656-62.550781l-3.1875-15.6875c-38.15625 7.75-66.527343 39.992187-70.03125 78.238281h-16.007812c3.738281-47.945312 40.609375-88.0625 88.761719-94.945312l-2.265625-15.839844c-21.742188 3.113281-41.480469 12.113281-57.742188 25.199218-2.777344-1.125-5.609375-2.117187-8.527344-2.789062l-60.601562-13.992188v-20.121093c11.039062-9.917969 19.03125-23.144531 22.3125-38.152344 19.046875-3.046875 33.6875-19.464844 33.6875-39.359375v-48c0-57.34375-46.65625-104-104-104-42.144531 0-78.433594 25.238281-94.753906 61.359375-9.492188-17.472656-28.007813-29.359375-49.246094-29.359375h-24v8c0 20.382812 10.984375 38.199219 27.304688 48-16.320313 9.800781-27.304688 27.617188-27.304688 48v8h24c15.664062 0 29.824219-6.480469 40-16.886719v24.886719c0 19.894531 14.640625 36.3125 33.6875 39.359375 3.28125 15.007813 11.265625 28.234375 22.3125 38.152344v20.121093l-60.59375 13.984376c-25.558594 5.894531-43.40625 28.335937-43.40625 54.566406v129.816406h262.6875c19.558594 18.089844 45.089844 29.71875 73.3125 31.59375v16.40625h16v-16.40625c59.777344-3.96875 107.625-51.808594 111.59375-111.59375h16.40625zm-224.144531-73.054688c-18.0625 19.679688-29.609375 45.230469-31.488281 73.054688h-16.367188v16h16.40625c1.59375 23.9375 10.203125 45.921875 23.824219 64h-11.894531l-74.785157-114.664062 34.097657-52.28125zm-191.449219-182.945312h15.59375v16.808594c-5.945312 1.214844-11.328125 3.855468-16 7.390625v-16.199219c0-2.703125.167969-5.359375.40625-8zm175.59375 8v16.207031c-4.671875-3.535156-10.054688-6.183593-16-7.390625v-16.816406h15.59375c.238281 2.640625.40625 5.296875.40625 8zm-32 8h-33.472656c.898437-2.511719 1.472656-5.183594 1.472656-8s-.574219-5.488281-1.472656-8h33.472656zm-48-8c0 4.414062-3.59375 8-8 8s-8-3.585938-8-8 3.59375-8 8-8 8 3.585938 8 8zm-30.527344 8h-33.472656v-16h33.472656c-.898437 2.511719-1.472656 5.183594-1.472656 8s.574219 5.488281 1.472656 8zm-33.472656 16h112v32h-112zm128 46.527344v-45.046875c9.289062 3.3125 16 12.113281 16 22.527343 0 10.417969-6.710938 19.207032-16 22.519532zm-72-158.527344c40.191406 0 74.105469 27.121094 84.59375 64h-169.1875c10.488281-36.878906 44.402344-64 84.59375-64zm-151.191406 32h7.191406c19.320312 0 35.480469 13.769531 39.191406 32h-7.191406c-19.320312 0-35.480469-13.769531-39.191406-32zm7.191406 80h-7.191406c3.710937-18.230469 19.871094-32 39.191406-32h7.191406c-3.710937 18.230469-19.871094 32-39.191406 32zm56 24c0-10.414062 6.710938-19.214844 16-22.527344v45.046875c-9.289062-3.304687-16-12.105469-16-22.519531zm32 24h112c0 30.871094-25.121094 56-56 56s-56-25.128906-56-56zm56 72c11.503906 0 22.34375-2.777344 32-7.601562v13.226562l-32 49.0625-32-49.0625v-13.226562c9.65625 4.824218 20.496094 7.601562 32 7.601562zm-136 70.183594c0-18.742188 12.753906-34.769532 31.007812-38.976563l61.351563-14.160156 108.871094 166.953125h-201.230469zm224.40625 49.816406h16c3.824219 42.144531 37.449219 75.777344 79.59375 79.59375v16c-50.960938-3.90625-91.6875-44.632812-95.59375-95.59375zm111.59375 95.59375v-16c42.144531-3.824219 75.777344-37.449219 79.59375-79.59375h16c-3.90625 50.960938-44.632812 91.6875-95.59375 95.59375zm0 0"/><path d="m208 144c0 4.417969-3.582031 8-8 8s-8-3.582031-8-8 3.582031-8 8-8 8 3.582031 8 8zm0 0"/><path d="m144 144c0 4.417969-3.582031 8-8 8s-8-3.582031-8-8 3.582031-8 8-8 8 3.582031 8 8zm0 0"/><path d="m336 136v272h8c22.054688 0 40-17.945312 40-40v-232zm0 0" fill="#f0bc5e"/><path d="m384 96v-72c0-13.230469-10.769531-24-24-24s-24 10.769531-24 24v72h-32v48h112v-48zm-16-32h-16v-16h16zm-8-48c4.40625 0 8 3.585938 8 8v8h-16v-8c0-4.414062 3.59375-8 8-8zm-8 64h16v16h-16zm48 48h-80v-16h80zm0 0"/></svg>