<svg id="Layer_1" enable-background="new 0 0 512.002 512.002" height="512" viewBox="0 0 512.002 512.002" width="512" xmlns="http://www.w3.org/2000/svg"><g><g clip-rule="evenodd" fill-rule="evenodd"><path d="m395.684 311.167c-10.595 0-19.264 8.555-19.264 19.014v-68.046c0-11.073-9.178-20.132-20.396-20.132s-20.397 9.06-20.397 20.132v112.539l-4.254 2.424c-5.532 3.152-8.391 7.492-9.158 13.028-.559 4.038-.005 8.712 1.438 14.026l7.53 26.061 10.763 37.251v21.118c0 7.382 6.119 13.421 13.598 13.421h101.983c7.479 0 13.598-6.041 13.598-13.421v-21.118l12.337-16.144c6.981-9.134 8.539-15.148 8.539-29.291 0-28.832 0-37.663 0-66.494 0-10.458-8.668-19.014-19.263-19.014s-19.264 8.556-19.264 19.014v-12.427c0-8.961-6.364-16.525-14.852-18.508-1.418-.331-2.895-.506-4.411-.506-10.595 0-19.264 8.556-19.264 19.014v-12.926c0-8.865-6.228-16.362-14.579-18.441-1.5-.375-3.07-.574-4.684-.574z" fill="#ffdcd5"/><path d="m322.216 390.125c-25.295 12.988-53.459 19.875-82.216 19.875-99.411 0-180-80.589-180-180s80.589-180 180-180 180 80.589 180 180c0 28.545-6.788 56.541-19.632 81.739 8.351 2.079 14.579 9.577 14.579 18.441v12.926c0-10.458 8.669-19.014 19.264-19.014 1.516 0 2.994.175 4.411.507 14.012-29.417 21.378-61.721 21.378-94.599 0-121.503-98.497-220-220-220s-220 98.497-220 220 98.497 220 220 220c31.617 0 62.695-6.814 91.183-19.788l-7.53-26.061c-1.442-5.314-1.996-9.988-1.437-14.026z" fill="#fff"/><path d="m240 410c28.757 0 56.921-6.887 82.215-19.875.766-5.536 3.626-9.876 9.158-13.028l4.254-2.424v-112.538c0-11.072 9.179-20.132 20.397-20.132s20.396 9.06 20.396 20.132v68.046c0-10.458 8.669-19.014 19.264-19.014 1.614 0 3.184.199 4.684.572 12.845-25.198 19.632-53.194 19.632-81.739 0-99.411-80.589-180-180-180s-180 80.589-180 180 80.589 180 180 180z" fill="#ff7d97"/><g fill="#fff"><path d="m275.86 194.082c7.809-7.809 20.472-7.809 28.281 0 7.81 7.81 7.81 20.472 0 28.281l-50 49.999c-7.809 7.81-20.472 7.81-28.281 0l-49.999-49.999c-7.81-7.81-7.81-20.472 0-28.281 7.809-7.809 20.472-7.809 28.281 0l15.858 15.859v-78.161c0-11.046 8.954-20 20-20s20 8.954 20 20v78.162z"/><path d="m193.237 308.221h93.527c11 0 20 9.001 20 20 0 10.998-9.001 20-20 20h-93.527c-10.998 0-20-9-20-20 0-11 9-20 20-20z"/></g></g><g><path d="m472.738 326.52c-4.561 0-8.881 1.04-12.733 2.893-2.037-3.756-4.894-7.006-8.317-9.544 11.989-28.303 18.312-59.165 18.312-89.869 0-45.026-13.026-88.647-37.67-126.147-3.032-4.616-9.233-5.898-13.849-2.865s-5.898 9.233-2.865 13.849c22.495 34.228 34.384 74.051 34.384 115.163 0 28.793-6.079 57.743-17.611 84.153-3.807.233-7.421 1.188-10.7 2.732-1.97-3.773-4.762-7.053-8.124-9.636 10.767-24.234 16.435-50.736 16.435-77.249 0-104.767-85.233-190-190-190s-190 85.233-190 190c0 34.139 9.169 67.628 26.518 96.847 1.869 3.148 5.195 4.896 8.608 4.896 1.736 0 3.495-.452 5.096-1.403 4.749-2.819 6.313-8.955 3.493-13.704-15.514-26.13-23.715-56.089-23.715-86.636 0-93.738 76.262-170 170-170s170 76.262 170 170c0 24.492-5.408 48.973-15.66 71.222-2.753.125-5.414.604-7.919 1.435v-40.522c0-16.615-13.636-30.132-30.396-30.132s-30.397 13.517-30.397 30.132v106.741c-5.965 3.601-9.95 8.401-11.99 14.336-22.89 10.989-48.25 16.788-73.638 16.788-30.539 0-60.496-8.199-86.631-23.711-4.75-2.819-10.885-1.254-13.704 3.496s-1.254 10.884 3.496 13.704c29.223 17.343 62.71 26.511 96.839 26.511 25.196 0 50.365-5.123 73.601-14.866.133.546.25 1.082.401 1.637.014.052.029.104.044.156l5.079 17.577c-25.201 10.275-51.775 15.496-79.125 15.496-115.794 0-210-94.206-210-210s94.206-210 210-210c41.123 0 80.947 11.891 115.169 34.387 4.614 3.033 10.814 1.751 13.85-2.863 3.034-4.615 1.751-10.816-2.863-13.85-37.494-24.647-81.117-37.674-126.156-37.674-61.435 0-119.193 23.924-162.634 67.365-43.441 43.442-67.366 101.199-67.366 162.635s23.924 119.193 67.365 162.635c43.442 43.441 101.2 67.365 162.635 67.365 29.248 0 57.688-5.444 84.707-16.176l7.239 25.055v19.702c0 12.915 10.586 23.421 23.598 23.421h101.983c13.012 0 23.598-10.507 23.598-23.421v-17.734l10.283-13.456c9.064-11.86 10.594-20.495 10.594-35.363v-66.494c-.001-15.998-13.128-29.014-29.264-29.014zm9.263 95.508c0 12.899-1.382 16.542-6.484 23.219l-12.337 16.144c-1.333 1.744-2.055 3.877-2.055 6.072v21.118c0 1.854-1.647 3.421-3.598 3.421h-101.983c-1.95 0-3.598-1.567-3.598-3.421v-21.118c0-.939-.132-1.874-.393-2.776l-18.269-63.229c-3.262-12.081.38-14.156 3.041-15.673l4.254-2.424c3.122-1.779 5.049-5.095 5.049-8.688v-112.538c0-5.587 4.664-10.132 10.397-10.132 5.732 0 10.396 4.545 10.396 10.132v88.857c0 5.523 4.477 10 10 10s10-4.477 10-10v-20.811c0-4.97 4.156-9.014 9.264-9.014 5.107 0 9.263 4.043 9.263 9.014v12.926c0 5.523 4.477 10 10 10s10-4.477 10-10c0-4.97 4.156-9.014 9.264-9.014s9.263 4.044 9.263 9.014v12.427c0 5.523 4.477 10 10 10s10-4.477 10-10c0-4.97 4.156-9.014 9.264-9.014s9.263 4.044 9.263 9.014v66.494z"/><path d="m395.569 84.442c2.559 0 5.118-.977 7.071-2.929 3.905-3.905 3.905-10.237 0-14.142l-.005-.005c-3.905-3.905-10.233-3.903-14.139.002-3.905 3.905-3.902 10.24.003 14.145 1.952 1.952 4.511 2.929 7.07 2.929z"/><path d="m119.797 364.355c3.905-3.905 3.905-10.237 0-14.142l-.005-.005c-3.905-3.905-10.233-3.903-14.139.002-3.905 3.905-3.902 10.24.003 14.145 1.953 1.953 4.512 2.929 7.071 2.929s5.118-.976 7.07-2.929z"/><path d="m240 101.779c-16.542 0-30 13.458-30 30v54.083c-5.507-4.938-12.545-7.638-19.999-7.638-8.013 0-15.546 3.121-21.212 8.786-5.666 5.666-8.786 13.199-8.786 21.212s3.121 15.546 8.786 21.212l49.999 50c5.848 5.848 13.53 8.772 21.212 8.772s15.364-2.924 21.212-8.772l50-50c11.695-11.696 11.695-30.727 0-42.423-5.666-5.666-13.199-8.786-21.212-8.786-7.455 0-14.493 2.7-20 7.639v-54.084c0-16.543-13.458-30.001-30-30.001zm42.931 99.374c1.889-1.889 4.399-2.928 7.07-2.928 2.67 0 5.181 1.04 7.069 2.928 3.898 3.898 3.898 10.241 0 14.139l-50 50c-1.888 1.889-4.399 2.928-7.069 2.928-2.671 0-5.182-1.04-7.07-2.928l-49.999-50c-1.889-1.888-2.928-4.399-2.928-7.069s1.04-5.181 2.928-7.07c1.888-1.888 4.398-2.928 7.069-2.928 2.67 0 5.181 1.04 7.069 2.928l15.858 15.859c2.859 2.86 7.161 3.716 10.898 2.168s6.173-5.194 6.173-9.239v-78.162c0-5.514 4.486-10 10-10s10 4.486 10 10v78.162c0 4.044 2.437 7.691 6.173 9.239 3.737 1.548 8.038.692 10.898-2.167z"/><path d="m286.764 298.221h-93.526c-16.542 0-30 13.458-30 30s13.458 30 30 30h93.526c16.542 0 30-13.458 30-30s-13.458-30-30-30zm0 40h-93.526c-5.514 0-10-4.486-10-10s4.486-10 10-10h93.526c5.514 0 10 4.486 10 10s-4.486 10-10 10z"/></g></g></svg>