<svg height="480pt" viewBox="-88 0 480 480" width="480pt" xmlns="http://www.w3.org/2000/svg"><path d="m8 72h288v336h-288zm0 0" fill="#5aaae7"/><path d="m296 40v32h-288v-32c0-17.671875 14.328125-32 32-32h224c17.671875 0 32 14.328125 32 32zm0 0" fill="#acabb1"/><path d="m296 408v32c0 17.671875-14.328125 32-32 32h-224c-17.671875 0-32-14.328125-32-32v-32zm0 0" fill="#acabb1"/><path d="m80 304c0 8.835938-7.164062 16-16 16s-16-7.164062-16-16 7.164062-16 16-16 16 7.164062 16 16zm0 0" fill="#ffa733"/><path d="m208 178.480469v53.519531s-32 16-56 16-56-16-56-16v-53.519531l56 21.519531zm0 0" fill="#898890"/><path d="m256 160-48 18.480469-56 21.519531-56-21.519531-48-18.480469 104-40zm0 0" fill="#acabb1"/><path d="m264 0h-224c-22.082031.0273438-39.9726562 17.917969-40 40v400c.0273438 22.082031 17.917969 39.972656 40 40h224c22.082031-.027344 39.972656-17.917969 40-40v-400c-.027344-22.082031-17.917969-39.9726562-40-40zm-224 16h224c13.253906 0 24 10.746094 24 24v24h-272v-24c0-13.253906 10.746094-24 24-24zm248 64v320h-272v-320zm-24 384h-224c-13.253906 0-24-10.746094-24-24v-24h272v24c0 13.253906-10.746094 24-24 24zm0 0"/><path d="m48 32h16v16h-16zm0 0"/><path d="m80 32h48v16h-48zm0 0"/><path d="m128 432h48v16h-48zm0 0"/><path d="m144 352h16v16h-16zm0 0"/><path d="m176 352h16v16h-16zm0 0"/><path d="m112 352h16v16h-16zm0 0"/><path d="m18.34375 218.34375 11.3125 11.3125 10.34375-10.34375v12.6875h16v-12.6875l10.34375 10.34375 11.3125-11.3125-21.65625-21.65625v-25.039062l32 12.351562v48c0 3.03125 1.710938 5.804688 4.425781 7.160156 1.375.679688 33.972657 16.839844 59.574219 16.839844s58.199219-16.160156 59.574219-16.839844c2.714843-1.355468 4.425781-4.128906 4.425781-7.160156v-48l42.871094-16.488281c3.097656-1.183594 5.144531-4.15625 5.144531-7.472657 0-3.316406-2.046875-6.285156-5.144531-7.472656l-104-40c-1.851563-.695312-3.890625-.695312-5.742188 0l-104 40c-3.078125 1.183594-5.113281 4.136719-5.128906 7.433594v36.6875zm181.65625 8.558594c-15.066406 7.257812-31.335938 11.695312-48 13.097656-16.664062-1.410156-32.929688-5.847656-48-13.097656v-36.796875l45.128906 17.359375c1.847656.703125 3.894532.703125 5.742188 0l45.128906-17.351563zm-48-98.335938 81.710938 31.433594-81.710938 31.433594-81.710938-31.433594zm0 0"/><path d="m184 272h-16v48c0 4.417969 3.582031 8 8 8h24v-16h-16zm0 0"/><path d="m216 312h32v16h-32zm0 0"/><path d="m216 288h32v16h-32zm0 0"/><path d="m120 296h-16v16h24c4.417969 0 8-3.582031 8-8v-32h-16zm0 0"/><path d="m64 280c-13.253906 0-24 10.746094-24 24s10.746094 24 24 24 24-10.746094 24-24-10.746094-24-24-24zm0 32c-4.417969 0-8-3.582031-8-8s3.582031-8 8-8 8 3.582031 8 8-3.582031 8-8 8zm0 0"/></svg>