<?xml version="1.0" standalone="no"?>
<!DOCTYPE svg PUBLIC "-//W3C//DTD SVG 20010904//EN"
 "http://www.w3.org/TR/2001/REC-SVG-20010904/DTD/svg10.dtd">
<svg version="1.0" xmlns="http://www.w3.org/2000/svg"
 width="1334.000000pt" height="1270.000000pt" viewBox="0 0 1334.000000 1270.000000"
 preserveAspectRatio="xMidYMid meet">
<metadata>
Created by potrace 1.16, written by Peter Selinger 2001-2019
</metadata>
<g transform="translate(0.000000,1270.000000) scale(0.100000,-0.100000)"
fill="#000000" stroke="none">
<path d="M1120 12690 c-118 -15 -265 -49 -392 -90 -159 -52 -357 -140 -374
-165 -25 -39 -153 -442 -198 -625 -112 -451 -156 -826 -156 -1314 0 -869 116
-1535 319 -1829 43 -63 115 -126 177 -154 49 -22 65 -24 137 -20 126 8 177 27
286 109 106 79 309 247 331 273 33 40 47 38 82 -12 18 -27 88 -117 155 -201
l123 -153 -78 -122 c-406 -631 -729 -1399 -941 -2232 -161 -636 -234 -1124
-247 -1645 -43 -1678 709 -2923 2226 -3690 942 -475 2138 -750 3525 -810 303
-14 1319 -7 1555 9 1305 92 2359 345 3235 776 487 240 864 504 1206 845 452
450 749 951 918 1550 202 718 208 1521 20 2465 -218 1090 -590 2032 -1115
2822 l-122 185 106 143 107 143 50 -44 c200 -177 428 -358 470 -374 123 -47
242 -53 322 -16 274 128 430 635 484 1568 15 266 7 789 -16 993 -47 426 -150
875 -287 1251 l-44 119 -64 32 c-174 85 -418 165 -605 199 -139 25 -422 25
-560 0 -319 -58 -578 -174 -1162 -524 -139 -82 -193 -120 -193 -133 0 -16 -4
-17 -25 -9 -23 9 -27 4 -73 -78 -208 -369 -407 -880 -522 -1344 -17 -68 -33
-129 -35 -136 -3 -9 -28 -1 -85 28 -534 269 -1189 477 -1821 579 -419 68 -673
85 -1198 78 -505 -6 -762 -32 -1191 -117 -604 -120 -1102 -291 -1648 -566
-147 -74 -245 -118 -247 -111 -2 7 -16 64 -31 127 -121 513 -324 1056 -537
1439 -26 46 -47 94 -47 106 0 19 -38 45 -227 158 -324 192 -370 217 -543 301
-235 113 -414 173 -610 206 -90 15 -350 21 -440 10z m9550 -1910 c148 -358
395 -765 682 -1120 68 -84 127 -159 133 -166 11 -16 -12 -89 -73 -234 l-35
-85 -211 210 c-278 278 -500 464 -788 662 -70 49 -127 93 -127 99 -1 18 96
249 165 394 80 166 194 364 203 353 4 -4 27 -55 51 -113z m-7927 -17 c96 -168
194 -378 283 -613 24 -63 44 -122 43 -130 0 -8 -51 -52 -112 -97 -263 -191
-650 -550 -872 -807 l-100 -116 -60 124 c-33 68 -75 164 -94 213 l-33 91 107
128 c330 398 603 832 756 1201 19 46 35 83 36 83 1 0 21 -35 46 -77z m4457
-4872 c423 -73 768 -213 1054 -427 360 -271 604 -650 726 -1128 69 -271 77
-479 26 -680 -144 -566 -741 -907 -1761 -1008 -205 -20 -830 -17 -1035 5 -673
74 -1153 252 -1438 535 -139 138 -224 283 -274 470 -32 119 -36 351 -10 507
63 363 215 710 430 976 86 107 262 272 370 349 332 234 698 364 1192 424 19 2
161 3 315 1 233 -2 301 -6 405 -24z"/>
<path d="M5980 5244 c-155 -42 -279 -179 -325 -359 -19 -77 -19 -221 1 -298
45 -174 167 -309 318 -352 244 -71 491 121 537 416 35 224 -76 470 -253 560
-95 49 -181 59 -278 33z"/>
<path d="M7332 5244 c-195 -52 -342 -269 -342 -504 1 -214 109 -403 277 -483
62 -29 77 -32 163 -32 86 0 101 3 162 32 310 147 374 638 114 880 -116 109
-238 144 -374 107z"/>
</g>
</svg>
