<svg id="Capa_1" enable-background="new 0 0 512 512" height="512" viewBox="0 0 512 512" width="512" xmlns="http://www.w3.org/2000/svg"><g><g><g><path d="m442.729 407.448h-373.458c-5.532 0-10.017-4.485-10.017-10.017v-290.749l5.009-14.368h383.475l5.009 14.368v290.749c-.001 5.532-4.486 10.017-10.018 10.017z" fill="#d3effb"/></g><g><path d="m447.737 92.314h-32.658v267.45c0 5.532-4.485 10.017-10.017 10.017h-345.808v27.65c0 5.532 4.485 10.017 10.017 10.017h373.458c5.532 0 10.017-4.485 10.017-10.017v-290.749z" fill="#b1e4f9"/></g><g><path d="m452.746 106.682h-393.492v-89.169c0-5.523 4.477-10 10-10h373.492c5.523 0 10 4.477 10 10z" fill="#5766cb"/></g><g><path d="m442.729 7.513h-27.65v99.169h37.667v-89.152c0-5.532-4.485-10.017-10.017-10.017z" fill="#3d4fc3"/></g></g><g><circle cx="256" cy="393.291" fill="#dd636e" r="111.196"/></g><g><path d="m315.4 299.28c10.881 17.185 17.185 37.555 17.185 59.4 0 61.412-49.784 111.196-111.196 111.196-21.845 0-42.215-6.304-59.4-17.185 19.709 31.127 54.444 51.796 94.011 51.796 61.412 0 111.196-49.784 111.196-111.196 0-39.567-20.669-74.303-51.796-94.011z" fill="#d82e3d"/></g><g><path d="m299.8 386.018-62.642-36.166c-6.667-3.849-15 .962-15 8.66v72.332c0 7.698 8.333 12.509 15 8.66l62.642-36.166c6.666-3.849 6.666-13.471 0-17.32z" fill="#ecf4ff"/></g><g><path d="m442.729 0h-373.458c-9.666 0-17.53 7.864-17.53 17.53v379.901c0 9.666 7.864 17.53 17.53 17.53h70.008c10.214 55.144 58.664 97.039 116.721 97.039 65.456 0 118.709-53.253 118.709-118.709s-53.253-118.709-118.709-118.709c-42.29 0-81.71 22.776-102.875 59.44-2.075 3.593-.843 8.188 2.75 10.262 3.593 2.075 8.188.843 10.262-2.75 18.49-32.03 52.924-51.926 89.863-51.926 57.172 0 103.683 46.512 103.683 103.683s-46.512 103.683-103.683 103.683-103.683-46.512-103.683-103.683c0-7.487.801-14.955 2.38-22.197.884-4.054-1.685-8.057-5.74-8.941-4.049-.885-8.057 1.685-8.941 5.74-1.808 8.291-2.725 16.836-2.725 25.397 0 2.23.067 4.444.189 6.644h-68.209c-1.381 0-2.504-1.123-2.504-2.504v-283.235h267.904c4.15 0 7.513-3.364 7.513-7.513s-3.363-7.513-7.513-7.513h-267.904v-81.639c0-1.381 1.123-2.504 2.504-2.504h373.458c1.381 0 2.504 1.123 2.504 2.504v81.639h-74.26c-4.15 0-7.513 3.364-7.513 7.513s3.363 7.513 7.513 7.513h74.26v283.236c0 1.381-1.123 2.504-2.504 2.504h-37.6c-4.15 0-7.513 3.364-7.513 7.513s3.363 7.513 7.513 7.513h37.6c9.666 0 17.53-7.864 17.53-17.53v-379.901c0-9.666-7.864-17.53-17.53-17.53z"/><circle cx="107.273" cy="56.816" r="14.65"/><circle cx="151.825" cy="56.816" r="14.65"/><circle cx="196.376" cy="56.816" r="14.65"/><path d="m232.175 448.373c3.01 0 6.021-.792 8.765-2.377l62.59-36.137c5.489-3.169 8.765-8.844 8.765-15.182s-3.277-12.013-8.765-15.181l-62.59-36.137c-5.488-3.169-12.042-3.169-17.53 0-5.488 3.168-8.765 8.844-8.765 15.181v72.273c-.246 9.472 8.173 17.706 17.53 17.56zm-2.504-89.832c0-1.258.785-1.899 1.252-2.169.276-.159.719-.35 1.259-.35.375 0 .798.092 1.245.35l62.59 36.137c1.09.629 1.252 1.628 1.252 2.168s-.162 1.54-1.252 2.169l-62.59 36.137c-1.088.629-2.036.27-2.504 0s-1.252-.911-1.252-2.169z"/><path d="m123.481 146.645c-4.149 0-7.513 3.364-7.513 7.513v85.426c0 3.658 2.635 6.785 6.241 7.404.53.091 21.602.162 31.253.109 4.149-.023 7.494-3.406 7.471-7.555s-3.395-7.448-7.555-7.471c-7.953.045-16.536.072-22.384.072v-77.986c0-4.148-3.364-7.512-7.513-7.512z"/><path d="m195.43 154.158v85.499c0 4.149 3.364 7.513 7.513 7.513s7.513-3.364 7.513-7.513v-85.499c0-4.149-3.364-7.513-7.513-7.513-4.15 0-7.513 3.364-7.513 7.513z"/><path d="m388.518 162.452c4.15 0 7.513-3.364 7.513-7.513s-3.363-7.513-7.513-7.513h-35.697c-4.15 0-7.513 3.364-7.513 7.513v84.718c0 4.149 3.363 7.513 7.513 7.513h35.697c4.15 0 7.513-3.364 7.513-7.513s-3.363-7.513-7.513-7.513h-28.184v-27.334h25.551c4.15 0 7.513-3.364 7.513-7.513s-3.363-7.513-7.513-7.513h-25.551v-27.333h28.184z"/><path d="m304.254 152.337-22.73 68.42-23.837-68.672c-1.361-3.92-5.643-5.993-9.561-4.634-3.92 1.361-5.994 5.641-4.634 9.561l29.25 84.266c1.337 3.765 4.907 6.282 8.897 6.282h.065c4.017-.027 7.583-2.601 8.892-6.452l27.917-84.033c1.309-3.938-.823-8.19-4.761-9.499-3.934-1.308-8.19.823-9.498 4.761z"/></g></g></svg>